<?xml version="1.0" standalone="no"?>
<!DOCTYPE svg PUBLIC "-//W3C//DTD SVG 20010904//EN"
 "http://www.w3.org/TR/2001/REC-SVG-20010904/DTD/svg10.dtd">
<svg version="1.0" xmlns="http://www.w3.org/2000/svg"
 width="424.000000pt" height="424.000000pt" viewBox="0 0 424.000000 424.000000"
 preserveAspectRatio="xMidYMid meet">
<metadata>
Created by potrace 1.14, written by Peter Selinger 2001-2017
</metadata>
<g transform="translate(0.000000,424.000000) scale(0.100000,-0.100000)"
fill="#000000" stroke="none">
<path d="M80 2120 l0 -2120 2040 0 2040 0 0 2120 0 2120 -2040 0 -2040 0 0
-2120z m1582 1673 c14 -16 31 -38 38 -51 11 -22 13 -22 29 -8 33 30 63 15 89
-48 12 -27 14 -27 31 -12 25 22 48 11 61 -30 10 -31 15 -34 50 -34 47 0 64
-19 57 -65 l-6 -34 47 -3 c44 -3 47 -5 50 -33 5 -51 21 -80 68 -119 25 -21 47
-36 49 -34 2 2 25 64 51 138 49 144 79 206 101 215 23 8 140 -81 152 -116 6
-17 24 -46 41 -65 28 -33 29 -37 16 -62 -8 -15 -53 -64 -100 -110 -47 -46 -86
-87 -86 -92 0 -5 12 -15 27 -22 14 -7 35 -25 47 -41 18 -24 19 -32 9 -69 -9
-34 -8 -48 3 -70 19 -37 18 -62 -6 -108 -24 -47 -52 -65 -79 -50 -16 8 -22 4
-39 -23 -31 -53 -142 -167 -183 -188 -77 -39 -151 -16 -239 75 -70 72 -86 72
-162 0 -35 -34 -63 -53 -68 -48 -5 5 -12 36 -16 69 -3 33 -15 75 -25 93 -11
18 -19 42 -19 53 0 53 63 120 131 140 36 11 42 10 70 -10 33 -25 66 -23 93 5
31 30 -12 71 -146 144 -91 49 -104 67 -153 213 -26 79 -37 131 -41 195 -3 48
-12 113 -21 144 -13 47 -14 60 -3 73 19 23 53 18 82 -12z m2126 -1202 c5 -30
-21 -67 -61 -87 -43 -22 -43 -21 -23 -43 26 -29 16 -54 -31 -76 -40 -19 -42
-22 -27 -37 23 -22 11 -46 -31 -64 -30 -12 -35 -19 -35 -48 0 -48 -23 -68 -66
-60 l-34 6 0 -45 c0 -49 -9 -57 -62 -57 -22 0 -43 -13 -81 -49 -35 -33 -49
-53 -42 -60 6 -5 64 -29 130 -52 125 -43 209 -81 220 -99 8 -13 -57 -112 -91
-139 -15 -12 -33 -21 -40 -21 -8 0 -28 -14 -46 -30 -17 -16 -40 -30 -51 -30
-13 0 -58 39 -120 102 l-99 103 -18 -36 c-29 -55 -43 -63 -107 -56 -41 4 -64
2 -86 -10 -39 -20 -91 -6 -131 36 -23 24 -26 32 -17 49 14 27 14 32 -3 32 -26
0 -183 147 -205 192 -40 84 -25 134 70 235 36 37 59 70 59 84 0 13 -22 46 -57
82 -54 56 -56 60 -38 73 10 8 37 14 58 14 22 0 64 11 93 25 49 23 56 24 87 12
44 -19 103 -89 111 -132 7 -35 -6 -75 -24 -75 -15 0 -12 -43 6 -68 33 -47 78
-13 136 102 17 34 39 73 50 89 42 59 224 124 392 138 60 6 123 16 140 23 38
16 70 6 74 -23z m-2945 -83 c90 -92 101 -101 111 -84 6 10 22 32 35 49 24 28
27 29 84 23 43 -4 66 -2 89 10 28 15 34 14 69 -1 21 -10 48 -28 61 -42 19 -21
21 -27 9 -44 -14 -24 -16 -21 24 -42 49 -25 164 -136 185 -178 24 -47 26 -109
4 -152 -9 -18 -43 -60 -75 -94 -33 -34 -59 -70 -59 -80 0 -10 25 -43 55 -73
30 -30 55 -60 55 -66 0 -16 -24 -24 -68 -24 -20 0 -62 -12 -92 -26 -33 -15
-63 -23 -77 -19 -30 7 -90 61 -109 96 -18 36 -18 93 1 109 8 7 15 22 15 34 0
27 -27 66 -45 66 -20 0 -70 -62 -110 -138 -20 -38 -46 -80 -57 -92 -48 -51
-244 -115 -385 -125 -48 -3 -107 -13 -131 -22 -40 -14 -45 -14 -63 3 -10 9
-19 24 -19 32 0 15 54 72 85 89 19 11 19 12 0 33 -24 27 -13 48 38 73 35 18
36 19 21 42 -13 20 -13 24 1 39 9 9 27 19 41 22 19 5 24 13 24 38 0 45 19 64
65 68 40 3 40 3 37 40 -4 42 15 58 68 58 26 0 42 10 80 52 33 36 45 55 37 60
-7 4 -66 26 -132 48 -143 48 -209 80 -213 104 -6 30 69 127 113 147 22 10 51
29 65 43 13 15 32 26 43 26 13 0 59 -40 120 -102z m1437 -33 l0 -55 -75 0 -75
0 0 -130 0 -130 130 0 130 0 0 75 0 75 55 0 55 0 0 -205 0 -205 -55 0 -55 0 0
75 0 75 -130 0 -130 0 0 -130 0 -130 75 0 75 0 0 -55 0 -55 -205 0 -205 0 0
55 0 55 75 0 75 0 0 130 0 130 -130 0 -130 0 0 -75 0 -75 -55 0 -55 0 0 205 0
205 55 0 55 0 0 -75 0 -75 130 0 130 0 0 130 0 130 -75 0 -75 0 0 55 0 55 205
0 205 0 0 -55z m-195 -916 c26 -7 61 -33 105 -75 84 -81 102 -83 169 -14 69
71 91 66 91 -23 0 -26 10 -61 25 -89 23 -44 24 -50 12 -80 -38 -90 -157 -148
-202 -98 -13 14 -25 18 -44 13 -94 -22 -59 -78 101 -164 93 -50 110 -74 158
-218 23 -69 34 -124 40 -207 5 -62 14 -122 20 -134 6 -11 10 -33 8 -48 -2 -22
-9 -28 -34 -30 -25 -2 -37 4 -61 32 -17 19 -33 40 -35 48 -4 11 -9 11 -31 -1
-35 -19 -55 -9 -76 39 -16 35 -20 38 -31 25 -22 -27 -47 -18 -66 25 -16 36
-21 40 -56 40 -45 0 -61 22 -51 71 l6 32 -36 -6 c-46 -7 -63 8 -70 63 -5 37
-13 51 -54 86 -26 23 -51 39 -55 36 -4 -4 -26 -61 -48 -127 -47 -136 -78 -204
-101 -218 -24 -15 -132 65 -154 114 -10 21 -28 48 -41 60 -43 40 -33 62 79
170 82 80 99 101 87 109 -8 5 -20 10 -26 10 -6 0 -21 11 -34 25 -20 21 -22 31
-17 81 4 40 1 65 -10 90 -15 31 -15 36 2 74 25 55 60 83 87 69 11 -6 21 -9 22
-7 65 104 169 213 218 227 45 13 57 13 103 0z"/>
</g>
</svg>
