<?xml version="1.0" standalone="no"?>
<!DOCTYPE svg PUBLIC "-//W3C//DTD SVG 20010904//EN"
 "http://www.w3.org/TR/2001/REC-SVG-20010904/DTD/svg10.dtd">
<svg version="1.0" xmlns="http://www.w3.org/2000/svg"
 width="952.000000pt" height="952.000000pt" viewBox="0 0 952.000000 952.000000"
 preserveAspectRatio="xMidYMid meet">
<metadata>
Created by potrace 1.14, written by Peter Selinger 2001-2017
</metadata>
<g transform="translate(0.000000,952.000000) scale(0.100000,-0.100000)"
fill="#000000" stroke="none">
<path d="M0 6274 l0 -2726 63 50 c53 42 120 131 114 152 -5 19 221 434 272
499 15 20 45 63 66 96 97 154 240 292 328 316 55 15 189 -3 272 -36 32 -14 61
-23 63 -20 2 2 -8 55 -22 117 -53 239 -174 473 -405 788 -30 41 -63 97 -74
125 -10 27 -29 70 -41 95 -74 145 -93 326 -44 431 30 67 83 128 132 154 26 14
36 26 36 43 0 34 17 60 50 77 16 9 32 15 35 15 48 -2 46 -7 39 103 -6 91 -4
107 14 142 30 60 55 78 115 83 69 6 156 -17 256 -68 89 -44 137 -50 192 -23
38 18 169 121 169 133 0 4 10 18 23 31 23 24 107 127 179 220 20 26 45 56 55
67 10 11 56 64 103 119 134 156 319 305 507 409 83 45 327 134 370 134 21 0
23 2 12 23 -12 23 -48 70 -73 97 -18 19 -36 65 -36 91 0 28 58 84 106 102 35
13 50 13 109 2 38 -7 71 -18 73 -23 2 -6 18 -21 37 -32 27 -17 56 -22 162 -27
161 -7 243 5 342 53 84 40 235 138 254 164 7 9 42 50 79 91 36 41 83 95 105
121 21 26 81 95 133 152 93 103 97 106 226 171 75 37 151 68 175 71 24 3 57 9
73 15 39 12 184 11 265 -2 89 -14 303 -84 370 -120 30 -16 58 -29 62 -29 4 0
49 -22 100 -50 51 -27 96 -50 100 -50 5 0 11 11 15 25 7 28 74 65 118 65 40 0
218 -64 294 -107 92 -51 160 -96 207 -136 l40 -35 75 38 c162 81 272 102 475
89 129 -9 139 -11 236 -54 132 -58 174 -93 211 -171 26 -56 28 -67 19 -102
-25 -92 -121 -113 -228 -49 -29 16 -39 17 -85 7 -46 -9 -184 -72 -198 -89 -3
-3 -31 -19 -63 -36 -72 -37 -90 -55 -54 -55 30 0 284 -56 342 -75 22 -7 54
-16 70 -19 90 -16 333 -98 465 -156 37 -16 74 -30 80 -30 33 0 434 -188 589
-276 120 -68 294 -206 356 -283 28 -34 65 -79 83 -100 68 -81 123 -235 138
-388 7 -73 7 -73 36 -73 36 0 88 -48 88 -82 0 -39 -64 -161 -103 -195 -43 -38
-44 -51 -17 -144 16 -53 33 -83 77 -133 31 -37 60 -66 63 -66 4 0 18 -9 31
-21 13 -12 49 -38 79 -59 31 -21 72 -57 93 -81 20 -24 44 -52 52 -62 34 -39
39 -64 21 -111 -18 -48 -33 -56 -102 -56 l-41 0 47 -92 c82 -161 117 -262 131
-378 8 -72 20 -120 36 -154 42 -84 85 -302 89 -456 3 -123 1 -144 -25 -240
-39 -144 -72 -245 -124 -380 -67 -174 -80 -238 -75 -374 4 -114 4 -115 44
-172 35 -52 51 -64 154 -119 121 -64 150 -93 150 -150 0 -44 -33 -92 -69 -100
-16 -3 -36 -17 -45 -30 -22 -33 -77 -49 -148 -41 -32 3 -67 10 -76 15 -9 4
-33 11 -52 14 l-36 5 -12 -74 c-17 -110 -53 -166 -122 -189 -28 -9 -35 -19
-51 -70 -10 -33 -21 -107 -25 -165 -9 -159 -36 -222 -139 -327 -67 -68 -95
-88 -165 -121 -183 -83 -215 -90 -590 -132 -125 -14 -202 -42 -237 -87 -68
-86 -96 -113 -118 -113 -41 0 -82 21 -95 48 -13 30 -16 28 -52 -38 -21 -37
-66 -57 -145 -66 -72 -7 -173 -44 -240 -87 -28 -17 -70 -43 -93 -57 -24 -14
-61 -41 -84 -60 -22 -20 -67 -55 -98 -79 -32 -24 -58 -46 -58 -50 0 -3 -11
-13 -24 -21 -14 -8 -64 -52 -113 -97 -116 -109 -128 -119 -147 -126 -9 -4 -16
-11 -16 -16 0 -16 -82 -42 -140 -44 -73 -2 -117 23 -148 83 -19 38 -22 56 -18
115 3 39 19 109 35 157 l30 88 -22 4 c-12 3 -51 8 -87 11 -105 10 -160 41
-187 103 -13 31 -12 38 12 90 14 31 40 71 57 89 30 31 31 35 25 95 -6 67 -11
95 -28 171 -9 38 -15 48 -28 44 -9 -3 -61 -19 -116 -37 -104 -33 -351 -72
-465 -74 -73 -1 -126 18 -134 47 -4 16 -10 18 -33 13 -113 -28 -186 -27 -238
4 -58 35 -152 61 -198 54 -69 -9 -67 -8 -45 -66 11 -29 26 -89 34 -133 28
-163 33 -172 136 -255 102 -83 329 -306 367 -361 14 -22 41 -42 70 -54 54 -22
136 -97 231 -211 76 -90 165 -257 196 -366 l19 -68 386 0 387 0 16 25 c19 30
20 94 5 337 -7 97 -9 188 -5 203 11 45 83 66 157 45 29 -8 40 -19 62 -63 32
-65 63 -215 77 -370 7 -80 15 -124 25 -134 8 -8 15 -21 15 -29 0 -12 186 -14
1345 -14 l1345 0 -2 3557 -3 3558 -58 210 c-32 116 -63 224 -68 240 -5 17 -43
158 -84 315 -42 157 -80 293 -85 302 -6 10 -10 26 -10 35 0 10 -15 72 -33 138
l-34 120 -4571 3 -4572 2 0 -2726z"/>
<path d="M9174 8983 c13 -44 94 -342 196 -723 134 -498 140 -520 146 -520 2 0
4 284 4 630 l0 630 -176 0 c-162 0 -175 -1 -170 -17z"/>
<path d="M4640 8766 c-170 -27 -312 -126 -494 -344 -88 -106 -195 -222 -246
-266 -19 -17 -41 -38 -50 -46 -23 -21 -62 -44 -160 -94 -152 -77 -171 -81
-385 -80 -171 1 -195 3 -238 22 -26 12 -60 30 -74 42 -14 11 -39 20 -54 20
-45 0 -38 -38 25 -133 30 -45 65 -107 78 -137 l25 -55 -84 4 c-152 6 -336 -57
-538 -184 -143 -90 -388 -331 -545 -535 -63 -82 -143 -174 -224 -259 -89 -92
-177 -144 -264 -156 -48 -6 -139 18 -188 50 -39 25 -155 65 -189 65 -50 0 -57
-28 -46 -185 6 -71 7 -133 3 -137 -4 -4 -32 -8 -62 -10 -47 -3 -55 -6 -56 -23
-2 -40 -5 -45 -36 -61 -45 -23 -106 -82 -139 -133 -25 -38 -29 -55 -29 -112 0
-127 70 -300 200 -494 262 -390 390 -663 414 -885 13 -126 26 -185 42 -197 9
-6 14 -18 12 -25 -3 -7 3 -20 12 -28 9 -8 22 -31 29 -50 6 -19 25 -53 41 -75
39 -53 85 -141 98 -186 7 -27 6 -42 -4 -62 -14 -26 -15 -26 -48 -10 -84 40
-89 -38 -9 -144 30 -38 97 -73 143 -73 52 0 117 38 152 89 22 34 29 40 25 21
-3 -14 -9 -72 -12 -130 -4 -65 -14 -120 -24 -145 -21 -48 -91 -114 -130 -121
-22 -5 -27 -10 -24 -25 14 -53 196 -89 266 -53 53 28 171 121 197 156 13 18
38 48 55 66 27 31 105 147 155 232 11 19 34 55 50 80 17 25 40 66 51 93 12 26
26 47 30 47 5 0 9 -31 9 -70 0 -42 10 -107 26 -167 14 -54 27 -111 30 -128 5
-33 27 -128 49 -215 49 -186 64 -252 70 -310 10 -84 19 -108 49 -121 21 -10
29 -7 63 19 21 17 49 33 62 34 21 3 25 -3 38 -52 7 -30 17 -84 21 -119 10 -87
27 -99 158 -111 131 -13 178 -20 195 -30 26 -17 -5 -30 -86 -36 -91 -7 -209
-41 -307 -90 -66 -33 -253 -155 -273 -178 -18 -21 -118 -88 -152 -102 -18 -8
-43 -12 -56 -9 -107 27 -215 34 -422 28 -331 -9 -332 -9 -353 10 -23 21 -65
21 -213 2 -118 -16 -203 -36 -252 -62 -40 -20 -45 -9 -20 40 55 105 163 478
163 562 0 26 -9 41 -48 76 -27 24 -57 51 -68 59 -10 8 -48 38 -84 66 -36 28
-86 65 -112 83 -46 31 -48 34 -47 79 1 47 1 48 94 127 52 44 109 98 128 120
53 63 122 201 157 315 31 97 33 116 34 250 l1 145 -35 65 c-62 114 -122 159
-224 167 -37 3 -66 11 -73 20 -10 13 -20 11 -70 -17 -32 -17 -71 -44 -86 -58
-41 -38 -178 -218 -212 -277 -16 -27 -46 -76 -68 -108 -57 -86 -192 -352 -217
-430 -15 -48 -32 -77 -53 -95 -17 -15 -56 -50 -87 -78 -30 -28 -70 -59 -88
-68 l-32 -17 0 -99 c0 -55 2 -100 4 -100 2 0 34 38 70 85 37 46 83 98 102 114
19 17 34 34 34 39 0 5 21 31 48 59 55 59 97 124 119 189 41 121 282 492 401
618 27 28 51 56 53 62 7 17 75 54 100 54 13 0 44 -14 70 -32 60 -41 89 -115
89 -228 0 -130 -80 -408 -162 -560 -47 -89 -70 -115 -122 -142 -33 -17 -49
-19 -124 -12 l-85 7 15 -21 c27 -39 112 -130 286 -305 166 -168 172 -176 162
-202 -6 -15 -15 -59 -20 -99 -6 -39 -17 -93 -26 -119 l-16 -48 -31 24 c-54 41
-118 70 -130 58 -11 -11 22 -47 102 -112 l44 -35 -58 -128 c-32 -70 -64 -130
-70 -132 -6 -3 -31 14 -55 36 -46 42 -60 49 -60 26 0 -41 16 -79 46 -110 l33
-34 -42 -64 c-63 -94 -110 -158 -116 -158 -3 0 -17 16 -30 36 -32 46 -79 80
-93 66 -19 -19 1 -62 49 -106 l46 -43 -49 -54 c-27 -31 -75 -74 -106 -97 l-57
-43 -53 27 c-64 32 -169 99 -281 177 l-82 57 -3 -36 c-2 -23 2 -40 10 -45 33
-21 118 -85 118 -89 0 -13 -64 -32 -95 -28 l-35 4 0 -43 c0 -40 2 -43 28 -43
16 0 57 18 93 39 l64 39 134 -69 c74 -38 140 -69 147 -69 28 0 103 58 187 146
87 89 167 195 248 326 39 65 44 69 103 87 33 10 86 22 116 26 30 4 96 17 145
30 50 13 107 26 128 29 l38 5 -67 -72 c-103 -111 -391 -548 -511 -777 -147
-281 -159 -296 -242 -326 -25 -9 -73 -27 -106 -39 -90 -34 -214 -69 -368 -105
l-137 -32 0 -35 0 -35 43 7 c142 22 522 135 590 175 17 10 18 9 12 -12 -4 -13
-15 -39 -25 -58 -53 -106 -210 -511 -210 -542 0 -5 12 -8 26 -6 23 3 31 16 69
110 40 100 158 351 280 598 65 131 393 686 450 760 23 30 72 100 108 156 37
55 76 109 87 119 11 10 20 22 20 27 0 5 15 25 33 43 l32 34 60 -17 c50 -14 99
-17 295 -15 149 2 264 8 315 17 44 8 82 12 84 10 2 -2 -7 -39 -19 -81 -35
-114 -33 -306 6 -573 26 -186 166 -708 280 -1052 l46 -138 34 0 c19 0 34 3 34
6 0 9 -37 144 -142 509 -11 39 -31 104 -44 145 -13 41 -24 80 -24 85 0 12 71
41 122 50 25 4 63 26 110 64 93 74 146 132 233 254 38 55 85 117 104 138 l36
40 95 -56 c52 -31 113 -66 135 -77 22 -12 43 -26 48 -32 12 -18 -3 -84 -35
-155 -30 -66 -71 -186 -123 -356 -15 -49 -55 -173 -90 -275 -35 -102 -74 -220
-87 -263 l-25 -78 56 3 56 3 19 60 c10 33 29 83 42 110 13 28 33 86 44 130 12
44 37 127 56 185 33 99 55 170 84 268 7 23 15 40 18 38 2 -3 14 -56 27 -118
42 -207 85 -382 95 -392 18 -18 185 -8 248 14 74 26 95 25 59 -2 -47 -34 -301
-183 -492 -287 -15 -8 5 -10 91 -11 l110 0 81 42 c163 87 565 353 784 520 153
116 288 248 323 316 l17 33 47 -40 c109 -92 352 -353 352 -379 0 -7 -22 -117
-50 -244 -27 -127 -50 -235 -50 -239 0 -5 22 -9 48 -9 l48 0 27 148 c15 81 27
163 27 182 0 19 9 49 20 67 10 18 22 55 26 84 l7 51 53 -59 c99 -107 208 -282
256 -410 l23 -63 43 0 c50 0 50 -8 0 122 -39 102 -112 212 -214 324 -88 96
-133 126 -158 105 -12 -10 -20 -4 -44 31 -41 58 -327 347 -430 433 -71 60 -84
76 -97 119 -8 27 -15 62 -15 78 0 16 -9 61 -21 101 -11 39 -27 97 -35 127 -8
30 -37 99 -63 153 -26 53 -46 97 -44 97 2 0 37 -18 79 -41 67 -37 79 -40 127
-36 28 3 73 11 99 17 44 12 48 12 77 -12 16 -14 65 -40 107 -58 l78 -32 98 22
c111 25 148 22 148 -14 0 -43 21 -50 113 -37 45 7 122 17 171 22 101 10 219
40 268 67 18 11 57 34 86 52 30 19 56 30 61 24 4 -5 13 -27 19 -49 6 -22 21
-71 33 -110 21 -72 48 -234 49 -294 0 -29 -9 -43 -56 -88 -30 -29 -54 -59 -52
-66 2 -6 20 -20 39 -29 64 -33 185 -19 312 36 20 9 37 12 37 7 0 -5 -15 -42
-34 -82 -97 -212 -137 -343 -117 -385 13 -30 52 -49 84 -40 27 6 236 174 337
271 89 85 216 180 335 250 110 65 172 90 255 100 117 14 142 33 175 135 30 92
57 135 84 135 34 0 61 -42 67 -106 8 -83 11 -85 46 -38 22 28 58 56 106 81 75
41 95 45 332 68 124 12 277 44 349 73 85 34 206 114 250 163 43 49 75 110 93
179 9 35 9 55 -1 96 -13 48 -12 55 12 118 15 38 29 98 32 144 7 76 21 103 27
50 6 -52 71 -38 108 23 17 26 20 49 20 143 l0 111 28 -6 c15 -4 38 -11 52 -16
14 -5 66 -18 115 -28 50 -11 102 -22 117 -25 24 -6 27 -4 30 21 2 20 9 30 23
32 90 13 86 31 -18 83 -130 64 -170 98 -207 172 -44 90 -65 224 -51 331 16
121 18 130 72 261 183 451 199 643 81 985 -17 47 -37 135 -46 195 -17 118 -46
216 -93 310 -29 59 -80 145 -92 155 -13 11 -48 67 -60 97 -7 17 -19 34 -27 37
-8 3 -14 9 -14 14 0 7 14 9 100 12 14 1 51 -2 83 -6 33 -4 57 -3 57 3 0 9 -79
79 -172 152 -57 46 -165 157 -194 201 -32 49 -63 172 -65 261 -1 41 2 153 6
249 7 152 5 183 -9 235 -52 175 -209 360 -446 524 -81 55 -448 232 -650 313
-166 66 -447 164 -540 188 -123 31 -366 77 -505 95 -71 9 -134 20 -138 24 -30
29 355 265 523 322 103 34 155 34 214 -2 44 -27 66 -25 66 7 0 23 -52 84 -72
84 -3 0 -13 6 -21 14 -8 8 -55 31 -105 50 -89 35 -96 36 -225 36 -141 0 -220
-10 -270 -35 -17 -8 -34 -15 -38 -15 -4 0 -45 -22 -91 -50 -46 -27 -86 -50
-89 -50 -4 0 -33 21 -65 46 -75 58 -212 143 -313 194 -120 61 -225 67 -178 11
22 -25 130 -261 124 -268 -4 -3 -37 21 -74 54 -106 92 -150 125 -263 193 -153
92 -216 125 -300 153 -41 14 -89 33 -106 41 -73 37 -272 52 -404 32z m-770
-2217 c-12 -34 -30 -79 -40 -98 -10 -20 -32 -73 -50 -118 -17 -46 -37 -83 -43
-84 -7 -1 -22 0 -34 1 -20 1 -23 -3 -23 -38 0 -35 7 -47 58 -99 44 -46 156
-120 192 -129 3 0 21 -8 40 -17 20 -8 81 -21 137 -28 119 -15 198 -6 383 43
63 16 150 38 193 48 77 18 77 18 92 -3 20 -29 19 -43 -10 -135 -54 -171 -199
-333 -286 -320 -39 6 -37 -9 10 -85 101 -160 339 -267 593 -267 139 0 140 -2
27 -88 -80 -62 -150 -92 -268 -118 -66 -14 -79 -19 -62 -26 40 -14 292 -21
351 -9 30 6 84 16 120 21 152 24 272 81 450 215 52 40 104 77 115 83 44 23
228 172 315 255 78 74 150 129 150 113 0 -5 -87 -131 -152 -219 -23 -32 -82
-96 -130 -144 -49 -47 -88 -87 -88 -89 0 -9 122 -3 195 10 219 39 338 94 547
253 42 32 90 66 106 75 l29 17 11 -103 c18 -152 54 -287 111 -413 28 -62 51
-115 51 -118 0 -3 20 -47 44 -98 59 -121 61 -131 36 -202 -34 -96 -75 -226
-141 -440 -81 -266 -118 -363 -201 -530 -112 -222 -169 -318 -295 -495 -30
-41 -81 -95 -85 -90 -3 3 -28 34 -58 70 -29 36 -59 69 -67 73 -27 16 -55 -5
-79 -58 -47 -103 -43 -207 17 -424 16 -58 29 -106 29 -108 0 -12 -47 4 -137
48 -99 48 -218 79 -244 63 -15 -9 -11 -39 16 -118 35 -105 34 -114 -17 -120
-154 -19 -833 -9 -1038 14 -72 8 -392 39 -568 54 -62 5 -53 18 -106 -154 -19
-63 -40 -157 -46 -208 -7 -52 -16 -108 -21 -125 -6 -18 -14 -81 -19 -141 -5
-60 -13 -113 -17 -117 -14 -13 -295 -30 -330 -20 -18 5 -54 21 -80 35 -26 14
-95 48 -153 77 -128 63 -203 111 -233 151 -12 16 -37 46 -54 67 -18 21 -40 55
-48 74 -15 36 -15 36 23 74 148 148 296 423 308 576 6 66 4 80 -17 122 -13 26
-34 52 -46 58 -13 6 -23 14 -23 18 0 4 -8 10 -18 13 -45 15 -272 287 -396 476
-49 74 -114 173 -145 220 -62 94 -179 315 -171 324 3 2 46 10 95 16 50 6 108
20 131 31 75 36 144 156 144 249 0 46 -2 50 -24 50 -13 0 -52 -7 -85 -16 -73
-18 -156 -16 -156 5 0 9 26 23 70 36 93 29 192 79 252 126 26 22 65 53 87 71
56 45 76 84 76 146 0 56 -5 60 -48 38 -15 -8 -62 -26 -105 -41 -74 -25 -82
-26 -166 -16 -48 6 -103 16 -122 23 -61 21 -61 22 -48 180 11 127 18 162 67
313 64 200 117 324 282 655 67 134 137 280 155 325 18 44 50 118 70 165 20 47
42 97 48 112 8 19 17 26 27 23 35 -11 170 -24 250 -25 95 0 175 17 254 55 62
30 66 23 36 -66z m-750 -3866 c0 -5 -9 -22 -19 -39 -14 -23 -29 -33 -56 -37
-20 -3 -59 -20 -86 -38 -40 -25 -49 -36 -49 -60 0 -16 -5 -49 -12 -74 -34
-127 69 -350 212 -458 74 -55 229 -143 330 -187 52 -23 120 -52 151 -66 31
-13 65 -24 75 -24 11 0 48 -9 84 -21 103 -32 220 -23 332 28 46 21 65 36 93
79 49 74 69 151 60 234 -9 78 -9 160 0 169 9 8 52 -44 127 -154 74 -109 99
-164 129 -283 19 -79 20 -94 8 -110 -129 -177 -390 -420 -589 -547 -118 -76
-283 -163 -321 -170 -45 -8 -52 1 -68 90 -7 39 -19 104 -26 145 -8 41 -17 100
-20 130 -4 30 -15 116 -26 190 -10 74 -19 156 -19 181 0 34 -5 50 -19 60 -10
8 -52 39 -92 70 -41 31 -94 66 -119 79 -25 12 -53 26 -62 31 -25 13 -119 11
-159 -3 -40 -14 -106 -80 -162 -162 -56 -84 -99 -133 -226 -264 -61 -61 -117
-112 -125 -112 -9 0 -18 12 -21 28 -3 15 -10 41 -15 57 -5 17 -21 89 -36 160
-25 121 -27 148 -28 395 -1 181 3 271 10 284 11 18 105 82 229 156 28 16 63
41 79 55 40 34 233 129 336 164 95 33 100 34 100 24z m1499 -1197 c10 -12 5
-24 -26 -64 -21 -27 -51 -58 -67 -67 -16 -10 -47 -34 -68 -53 -53 -48 -47 -26
12 44 100 117 115 135 118 145 5 13 18 11 31 -5z"/>
<path d="M4155 5779 c-64 -34 -55 -34 -210 -3 -53 11 -140 21 -144 18 -11 -10
51 -60 114 -91 101 -51 188 -56 274 -18 66 30 98 69 86 105 -9 29 -50 25 -120
-11z"/>
<path d="M3511 5596 c-56 -19 -117 -77 -147 -141 -19 -39 -24 -67 -24 -127 0
-42 4 -79 8 -82 5 -3 42 25 83 61 133 117 131 116 196 108 119 -14 224 -82
444 -286 75 -69 149 -129 163 -133 42 -11 80 13 84 52 9 88 -169 287 -388 437
-141 97 -318 144 -419 111z"/>
<path d="M5732 5113 c-21 -8 -42 -60 -42 -102 0 -119 109 -251 209 -251 32 0
131 46 131 60 0 4 -34 17 -77 29 -115 31 -163 85 -163 185 0 67 -20 95 -58 79z"/>
<path d="M5395 4726 c-109 -35 -195 -100 -195 -148 0 -16 7 -31 15 -34 8 -3
57 1 109 10 116 20 173 20 270 1 166 -31 275 -109 352 -250 67 -125 117 -195
143 -202 38 -9 81 44 81 100 0 81 -42 187 -110 277 -48 65 -181 175 -230 191
-19 6 -40 15 -46 20 -5 5 -49 17 -97 29 -99 23 -230 26 -292 6z"/>
<path d="M3226 4588 c-62 -198 -69 -235 -74 -414 -3 -150 -1 -182 17 -253 23
-93 90 -249 126 -297 14 -18 25 -35 25 -38 0 -3 26 -45 57 -93 107 -167 289
-365 431 -470 129 -96 292 -173 397 -187 28 -4 64 -11 80 -16 17 -5 77 -16
135 -25 58 -8 116 -17 130 -20 146 -30 361 -35 467 -12 140 31 265 109 423
267 111 110 189 225 225 331 14 41 31 89 37 107 11 30 9 35 -18 64 -40 42
-230 194 -268 213 -17 9 -53 31 -81 50 -27 19 -70 49 -95 65 -25 17 -151 93
-280 170 -129 76 -271 159 -315 185 -44 26 -132 72 -195 102 -63 30 -135 66
-160 78 -86 44 -396 160 -470 176 -19 4 -102 21 -185 38 -82 17 -166 35 -185
40 -19 5 -72 12 -116 16 l-81 6 -27 -83z m233 -8 c552 -167 670 -213 1040
-403 144 -74 441 -242 506 -287 36 -24 114 -71 215 -128 127 -71 328 -204 381
-251 40 -35 41 -38 28 -62 -17 -30 -86 -93 -155 -142 -28 -19 -75 -53 -105
-76 -30 -22 -65 -41 -78 -41 -25 0 -111 30 -231 80 -406 170 -919 356 -865
313 26 -20 507 -253 523 -253 8 0 201 -89 322 -148 147 -73 157 -86 126 -183
-8 -24 -17 -60 -20 -80 -8 -44 -22 -51 -154 -81 -116 -26 -255 -28 -382 -4
-47 8 -132 22 -190 30 -111 16 -180 35 -295 84 -68 28 -185 90 -195 102 -3 3
-35 27 -71 53 -130 92 -329 320 -435 499 -103 172 -121 210 -104 216 8 3 34
24 58 47 52 52 54 80 17 222 -20 77 -28 138 -34 279 -5 100 -6 193 -4 208 6
31 17 32 102 6z"/>
<path d="M1303 3857 c-26 -76 -41 -108 -96 -202 -72 -122 -154 -218 -219 -253
-26 -15 -48 -30 -48 -34 0 -5 19 -21 43 -38 167 -119 264 -206 294 -264 28
-56 27 -86 -8 -216 -11 -41 -26 -100 -33 -130 -7 -30 -21 -81 -31 -113 -9 -32
-15 -60 -13 -63 2 -2 31 1 63 6 33 5 105 13 160 16 85 6 106 4 135 -11 29 -15
53 -17 204 -11 151 6 395 -4 527 -20 45 -6 48 -4 117 53 103 84 152 118 250
175 107 61 107 61 91 89 -7 13 -20 51 -29 83 l-17 59 -50 3 c-101 5 -153 55
-169 163 -9 60 -53 293 -64 336 -5 22 -21 86 -35 142 -13 56 -31 117 -39 135
-12 30 -14 31 -22 13 -21 -51 -128 -202 -185 -262 -95 -99 -158 -146 -235
-177 -62 -26 -77 -28 -149 -22 -146 11 -231 58 -254 141 -15 56 -14 75 9 112
15 26 29 34 62 39 25 5 51 17 65 32 33 35 29 52 -9 52 -53 1 -155 26 -185 45
-35 24 -57 49 -91 107 l-28 46 -11 -31z"/>
<path d="M1500 2188 c-53 -75 -53 -75 -85 -114 -14 -18 -25 -36 -25 -42 0 -6
-3 -12 -8 -14 -12 -5 -183 -268 -220 -338 -19 -36 -42 -74 -52 -85 -9 -11 -52
-87 -95 -170 -43 -82 -91 -169 -107 -193 -16 -23 -41 -68 -55 -100 -14 -31
-35 -69 -45 -85 -29 -40 -187 -381 -214 -460 l-23 -67 950 0 c522 0 949 2 949
3 0 2 -9 30 -21 63 -11 32 -22 67 -24 76 -9 42 -48 172 -76 254 -16 49 -57
193 -90 319 -32 127 -65 253 -73 280 -31 115 -65 437 -66 630 l0 90 -242 0
c-134 0 -263 3 -288 8 l-45 8 -45 -63z"/>
<path d="M3086 1619 c-30 -35 -34 -89 -12 -142 30 -74 82 -88 136 -37 31 29
32 33 28 87 -4 49 -10 61 -41 90 -46 42 -77 42 -111 2z m69 -64 c26 -21 28
-27 19 -52 -20 -57 -64 -24 -64 47 0 36 6 37 45 5z"/>
<path d="M4608 1169 c-54 -54 -113 -109 -132 -121 -18 -13 -60 -43 -91 -68
-143 -110 -436 -308 -565 -380 -52 -29 -104 -59 -115 -67 -16 -11 77 -13 570
-13 l590 0 19 73 c23 93 51 212 72 309 l16 76 -30 44 c-17 24 -77 88 -134 144
l-103 101 -97 -98z"/>
<path d="M2978 1128 c-34 -28 -48 -63 -48 -119 0 -69 27 -112 68 -107 39 4 92
79 92 128 0 32 -6 43 -44 74 -51 41 -47 40 -68 24z m62 -90 c0 -22 -17 -56
-38 -77 -13 -13 -16 -13 -28 4 -18 24 -18 57 1 102 l15 36 25 -23 c14 -13 25
-32 25 -42z"/>
<path d="M6590 983 c1 -32 5 -89 10 -128 5 -38 12 -130 16 -202 l7 -133 42 0
41 0 -8 63 c-4 34 -17 133 -28 221 -12 101 -26 171 -38 194 -29 57 -42 52 -42
-15z"/>
<path d="M280 919 c-96 -27 -187 -48 -202 -49 -15 0 -38 -4 -52 -10 l-26 -10
0 -165 0 -165 149 0 148 0 37 95 c20 52 36 97 36 100 0 2 20 57 45 121 26 64
45 119 43 124 -2 4 -82 -14 -178 -41z"/>
<path d="M2801 691 c-28 -22 -40 -96 -21 -141 12 -30 14 -30 86 -30 l73 0 11
41 c10 37 9 45 -9 70 -12 16 -21 33 -21 38 0 13 -53 41 -77 41 -10 0 -29 -9
-42 -19z m93 -68 l25 -37 -31 -28 c-37 -32 -41 -33 -62 -12 -10 10 -16 33 -16
65 0 48 1 49 30 49 23 0 35 -8 54 -37z"/>
</g>
</svg>
